<svg width="48" height="48" viewBox="0 0 48 48" fill="none" xmlns="http://www.w3.org/2000/svg">
<path d="M46.9844 23.9609C46.9844 25.3672 45.8125 26.4688 44.4844 26.4688H41.9844L42.0391 38.9766C42.0391 39.1953 42.0234 39.3984 42 39.6094V40.875C42 42.6016 40.6016 44 38.875 44H37.625C37.5391 44 37.4531 43.9297 37.3672 43.9922C37.2578 43.9297 37.1484 44 37.0391 44H32.625C30.8984 44 29.5 42.6016 29.5 40.875V34C29.5 32.6172 28.3828 31.5 27 31.5H22C20.6172 31.5 19.5 32.6172 19.5 34V40.875C19.5 42.6016 18.1016 44 16.375 44H12.0078C11.8906 44 11.7734 43.9922 11.6562 43.9844C11.5625 43.9922 11.4688 44 11.375 44H10.125C8.39922 44 7 42.6016 7 40.875V32.125C7 32.0547 7.00234 31.9766 7.00703 31.9062V26.4688H4.50391C3.09531 26.4688 2 25.3672 2 23.9609C2 23.2578 2.23469 22.6328 2.78203 22.0859L22.8125 4.62625C23.3594 4.07828 23.9844 4 24.5312 4C25.0781 4 25.7031 4.15656 26.1797 4.54797L46.125 22.0859C46.75 22.6328 47.0703 23.2578 46.9844 23.9609Z" fill="#66757A"/>
</svg>
