<svg width="45" height="40" viewBox="0 0 45 40" fill="none" xmlns="http://www.w3.org/2000/svg">
<path d="M44.9844 19.9609C44.9844 21.3672 43.8125 22.4688 42.4844 22.4688H39.9844L40.0391 34.9766C40.0391 35.1953 40.0234 35.3984 40 35.6094V36.875C40 38.6016 38.6016 40 36.875 40H35.625C35.5391 40 35.4531 39.9297 35.3672 39.9922C35.2578 39.9297 35.1484 40 35.0391 40H30.625C28.8984 40 27.5 38.6016 27.5 36.875V30C27.5 28.6172 26.3828 27.5 25 27.5H20C18.6172 27.5 17.5 28.6172 17.5 30V36.875C17.5 38.6016 16.1016 40 14.375 40H10.0078C9.89062 40 9.77344 39.9922 9.65625 39.9844C9.5625 39.9922 9.46875 40 9.375 40H8.125C6.39922 40 5 38.6016 5 36.875V28.125C5 28.0547 5.00234 27.9766 5.00703 27.9062V22.4688H2.50391C1.09531 22.4688 0 21.3672 0 19.9609C0 19.2578 0.234688 18.6328 0.782031 18.0859L20.8125 0.62625C21.3594 0.0782812 21.9844 0 22.5312 0C23.0781 0 23.7031 0.156562 24.1797 0.547969L44.125 18.0859C44.75 18.6328 45.0703 19.2578 44.9844 19.9609Z" fill="#BCD8E2"/>
</svg>
