<svg width="48" height="48" viewBox="0 0 48 48" fill="none" xmlns="http://www.w3.org/2000/svg">
<path d="M19.1996 21.3333C24.5015 21.3333 28.7996 16.5577 28.7996 10.6667C28.7996 4.77563 24.5015 0 19.1996 0C13.8977 0 9.59961 4.77563 9.59961 10.6667C9.59961 16.5577 13.8977 21.3333 19.1996 21.3333Z" fill="#BCD8E2"/>
<path d="M20.04 26.6934C13.488 26.4267 0 30.0534 0 37.3334V42.6667H22.896C16.968 35.3067 19.944 26.9601 20.04 26.6934Z" fill="#BCD8E2"/>
<path d="M41.832 37.3863C42.696 35.813 43.2 33.973 43.2 31.9997C43.2 26.1063 38.904 21.333 33.6 21.333C28.296 21.333 24 26.1063 24 31.9997C24 37.893 28.296 42.6663 33.6 42.6663C35.376 42.6663 37.032 42.0797 38.448 41.1463L44.616 47.9997L48 44.2397L41.832 37.3863ZM33.6 37.333C30.96 37.333 28.8 34.933 28.8 31.9997C28.8 29.0663 30.96 26.6663 33.6 26.6663C36.24 26.6663 38.4 29.0663 38.4 31.9997C38.4 34.933 36.24 37.333 33.6 37.333Z" fill="#BCD8E2"/>
</svg>
