<svg width="48" height="48" viewBox="0 0 48 48" fill="none" xmlns="http://www.w3.org/2000/svg">
<path d="M14.9998 33.6L14.9998 31.2H2.99977V33.6C2.99977 36.2512 5.68571 38.4 8.99976 38.4C12.3138 38.4 14.9998 36.2512 14.9998 33.6ZM38.9997 48C42.3138 48 44.9997 45.8512 44.9997 43.2V40.8H32.9997V43.2C32.9997 45.8512 35.6857 48 38.9997 48ZM26.9997 22.6905C26.9997 25.3088 28.2297 28.4025 29.9997 30.5452C31.5353 32.4045 32.9997 33.8842 32.9997 38.4H44.9997L46.4969 34.0852C47.1794 32.1195 47.7269 30.1095 47.9078 28.062C48.1244 25.6102 47.9706 23.142 47.3266 20.7435C45.1216 12.5325 40.2391 9.6 35.9997 9.6C29.9997 9.6 26.9997 15.9135 26.9997 22.6905ZM0.673838 11.1435C0.0297765 13.542 -0.124911 16.0102 0.0925889 18.462C0.273526 20.5095 0.821025 22.5195 1.50259 24.4852L2.99977 28.8H14.9998C14.9998 24.285 16.4641 22.8045 17.9997 20.9452C19.7697 18.8025 20.9997 15.7087 20.9997 13.0905C20.9997 6.3135 17.9997 0 11.9998 0C7.76039 0 2.8779 2.9325 0.673838 11.1435Z" fill="#BCD8E2"/>
</svg>
