<svg width="30" height="16" viewBox="0 0 30 16" fill="none" xmlns="http://www.w3.org/2000/svg">
<path d="M6.03922 15L2.59922 3.8H2.51922C2.53255 4.06667 2.55255 4.46667 2.57922 5C2.60589 5.53333 2.63255 6.10667 2.65922 6.72C2.68589 7.32 2.69922 7.86667 2.69922 8.36V15H-0.000781178V0.719999H4.11922L7.49922 11.64H7.55922L11.1392 0.719999H15.2592V15H12.4392V8.24C12.4392 7.78667 12.4459 7.26667 12.4592 6.68C12.4859 6.09333 12.5059 5.54 12.5192 5.02C12.5459 4.48667 12.5659 4.08667 12.5792 3.82H12.4992L8.81922 15H6.03922Z" fill="#3DB7EA"/>
<path d="M24.9264 3.04C24.3531 3.04 23.8397 3.15333 23.3864 3.38C22.9464 3.60667 22.5731 3.93333 22.2664 4.36C21.9597 4.77333 21.7264 5.28 21.5664 5.88C21.4197 6.48 21.3464 7.15333 21.3464 7.9C21.3464 8.91333 21.4664 9.78 21.7064 10.5C21.9597 11.2067 22.3531 11.7467 22.8864 12.12C23.4197 12.4933 24.0997 12.68 24.9264 12.68C25.5131 12.68 26.0931 12.6133 26.6664 12.48C27.2531 12.3467 27.8864 12.16 28.5664 11.92V14.46C27.9397 14.7133 27.3197 14.9 26.7064 15.02C26.0931 15.14 25.4064 15.2 24.6464 15.2C23.1797 15.2 21.9664 14.9 21.0064 14.3C20.0597 13.6867 19.3597 12.8333 18.9064 11.74C18.4531 10.6333 18.2264 9.34667 18.2264 7.88C18.2264 6.8 18.3731 5.81333 18.6664 4.92C18.9597 4.01333 19.3864 3.23333 19.9464 2.58C20.5197 1.92667 21.2197 1.42 22.0464 1.06C22.8864 0.699999 23.8464 0.519999 24.9264 0.519999C25.6331 0.519999 26.3397 0.613333 27.0464 0.799999C27.7664 0.973333 28.4531 1.21333 29.1064 1.52L28.1264 3.98C27.5931 3.72667 27.0531 3.50667 26.5064 3.32C25.9731 3.13333 25.4464 3.04 24.9264 3.04Z" fill="#FF7200"/>
<path d="M6.03922 15L5.08329 15.2936L5.30026 16H6.03922V15ZM2.59922 3.8L3.55515 3.50639L3.33818 2.8H2.59922V3.8ZM2.51922 3.8V2.8H1.46797L1.52047 3.84994L2.51922 3.8ZM2.57922 5L1.58047 5.04994L2.57922 5ZM2.65922 6.72L1.66016 6.76344L1.6602 6.7644L2.65922 6.72ZM2.69922 15V16H3.69922V15H2.69922ZM-0.000781059 15H-1.00078V16H-0.000781059V15ZM-0.000781059 0.719999V-0.280001H-1.00078V0.719999H-0.000781059ZM4.11922 0.719999L5.0745 0.424315L4.8565 -0.280001H4.11922V0.719999ZM7.49922 11.64L6.54393 11.9357L6.76194 12.64H7.49922V11.64ZM7.55922 11.64V12.64H8.28375L8.50946 11.9515L7.55922 11.64ZM11.1392 0.719999V-0.280001H10.4147L10.189 0.408474L11.1392 0.719999ZM15.2592 0.719999H16.2592V-0.280001H15.2592V0.719999ZM15.2592 15V16H16.2592V15H15.2592ZM12.4392 15H11.4392V16H12.4392V15ZM12.4592 6.68L11.4603 6.63459L11.4597 6.64593L11.4595 6.65728L12.4592 6.68ZM12.5192 5.02L11.5205 4.97006L11.5199 4.98221L11.5195 4.99437L12.5192 5.02ZM12.5792 3.82L13.578 3.86994L13.6305 2.82H12.5792V3.82ZM12.4992 3.82V2.82H11.7756L11.5494 3.50734L12.4992 3.82ZM8.81922 15V16H9.54284L9.76908 15.3127L8.81922 15ZM6.99515 14.7064L3.55515 3.50639L1.64329 4.09361L5.08329 15.2936L6.99515 14.7064ZM2.59922 2.8H2.51922V4.8H2.59922V2.8ZM1.52047 3.84994C1.5338 4.1166 1.5538 4.5166 1.58047 5.04994L3.57797 4.95006C3.5513 4.41673 3.5313 4.01673 3.51797 3.75006L1.52047 3.84994ZM1.58047 5.04994C1.60701 5.58081 1.63358 6.15196 1.66016 6.76344L3.65828 6.67656C3.63153 6.06137 3.60476 5.48585 3.57797 4.95006L1.58047 5.04994ZM1.6602 6.7644C1.68635 7.35265 1.69922 7.88423 1.69922 8.36H3.69922C3.69922 7.8491 3.68542 7.28735 3.65823 6.6756L1.6602 6.7644ZM1.69922 8.36V15H3.69922V8.36H1.69922ZM2.69922 14H-0.000781059V16H2.69922V14ZM0.999219 15V0.719999H-1.00078V15H0.999219ZM-0.000781059 1.72H4.11922V-0.280001H-0.000781059V1.72ZM3.16393 1.01568L6.54393 11.9357L8.4545 11.3443L5.0745 0.424315L3.16393 1.01568ZM7.49922 12.64H7.55922V10.64H7.49922V12.64ZM8.50946 11.9515L12.0895 1.03152L10.189 0.408474L6.60898 11.3285L8.50946 11.9515ZM11.1392 1.72H15.2592V-0.280001H11.1392V1.72ZM14.2592 0.719999V15H16.2592V0.719999H14.2592ZM15.2592 14H12.4392V16H15.2592V14ZM13.4392 15V8.24H11.4392V15H13.4392ZM13.4392 8.24C13.4392 7.79606 13.4458 7.28388 13.459 6.70272L11.4595 6.65728C11.446 7.24945 11.4392 7.77727 11.4392 8.24H13.4392ZM13.4582 6.72541C13.4851 6.13297 13.5054 5.573 13.5189 5.04563L11.5195 4.99437C11.5064 5.507 11.4867 6.05369 11.4603 6.63459L13.4582 6.72541ZM13.518 5.06994C13.5446 4.5366 13.5646 4.1366 13.578 3.86994L11.5805 3.77006C11.5671 4.03673 11.5471 4.43673 11.5205 4.97006L13.518 5.06994ZM12.5792 2.82H12.4992V4.82H12.5792V2.82ZM11.5494 3.50734L7.86935 14.6873L9.76908 15.3127L13.4491 4.13266L11.5494 3.50734ZM8.81922 14H6.03922V16H8.81922V14ZM23.3864 3.38L22.9392 2.48551L22.9284 2.49102L23.3864 3.38ZM22.2664 4.36L23.0695 4.95585L23.074 4.94978L23.0784 4.94364L22.2664 4.36ZM21.5664 5.88L20.6002 5.62234L20.5975 5.63241L20.595 5.64255L21.5664 5.88ZM21.7064 10.5L20.7577 10.8162L20.7613 10.8269L20.7651 10.8375L21.7064 10.5ZM22.8864 12.12L22.3129 12.9392L22.8864 12.12ZM26.6664 12.48L26.4448 11.5049L26.4399 11.506L26.6664 12.48ZM28.5664 11.92H29.5664V10.5066L28.2336 10.977L28.5664 11.92ZM28.5664 14.46L28.9412 15.3871L29.5664 15.1344V14.46H28.5664ZM26.7064 15.02L26.8984 16.0014L26.7064 15.02ZM21.0064 14.3L20.4627 15.1393L20.4695 15.1437L20.4764 15.148L21.0064 14.3ZM18.9064 11.74L17.981 12.1191L17.9827 12.123L18.9064 11.74ZM18.6664 4.92L19.6165 5.23197L19.6179 5.22782L18.6664 4.92ZM19.9464 2.58L19.1947 1.92036L19.1871 1.92921L19.9464 2.58ZM22.0464 1.06L21.6525 0.140839L21.6471 0.143165L22.0464 1.06ZM27.0464 0.799999L26.791 1.76684L26.8017 1.76965L26.8124 1.77222L27.0464 0.799999ZM29.1064 1.52L30.0354 1.89009L30.384 1.01501L29.5313 0.614762L29.1064 1.52ZM28.1264 3.98L27.6973 4.88328L28.6607 5.34087L29.0554 4.35009L28.1264 3.98ZM26.5064 3.32L26.176 4.26388L26.1833 4.26635L26.5064 3.32ZM24.9264 2.04C24.2183 2.04 23.5486 2.18085 22.9392 2.48557L23.8336 4.27443C24.1308 4.12582 24.4878 4.04 24.9264 4.04V2.04ZM22.9284 2.49102C22.3393 2.79451 21.8475 3.22949 21.4544 3.77636L23.0784 4.94364C23.2987 4.63718 23.5535 4.41882 23.8444 4.26897L22.9284 2.49102ZM21.4633 3.76415C21.0676 4.29749 20.7862 4.92488 20.6002 5.62234L22.5326 6.13766C22.6667 5.63512 22.8519 5.24918 23.0695 4.95585L21.4633 3.76415ZM20.595 5.64255C20.4259 6.33442 20.3464 7.08934 20.3464 7.9H22.3464C22.3464 7.21733 22.4136 6.62558 22.5378 6.11745L20.595 5.64255ZM20.3464 7.9C20.3464 8.9871 20.4745 9.96656 20.7577 10.8162L22.6551 10.1838C22.4583 9.59344 22.3464 8.83956 22.3464 7.9H20.3464ZM20.7651 10.8375C21.0772 11.7081 21.5851 12.4297 22.3129 12.9392L23.4599 11.3008C23.121 11.0636 22.8423 10.7053 22.6477 10.1625L20.7651 10.8375ZM22.3129 12.9392C23.0547 13.4585 23.95 13.68 24.9264 13.68V11.68C24.2495 11.68 23.7848 11.5282 23.4599 11.3008L22.3129 12.9392ZM24.9264 13.68C25.5896 13.68 26.2456 13.6046 26.8929 13.454L26.4399 11.506C25.9406 11.6221 25.4366 11.68 24.9264 11.68V13.68ZM26.888 13.4551C27.5189 13.3118 28.1897 13.1134 28.8992 12.863L28.2336 10.977C27.5831 11.2066 26.9873 11.3816 26.4448 11.5049L26.888 13.4551ZM27.5664 11.92V14.46H29.5664V11.92H27.5664ZM28.1916 13.5329C27.6193 13.7643 27.0604 13.9318 26.5144 14.0386L26.8984 16.0014C27.5791 15.8682 28.2602 15.6624 28.9412 15.3871L28.1916 13.5329ZM26.5144 14.0386C25.9761 14.1439 25.3552 14.2 24.6464 14.2V16.2C25.4576 16.2 26.21 16.1361 26.8984 16.0014L26.5144 14.0386ZM24.6464 14.2C23.3127 14.2 22.2969 13.9273 21.5364 13.452L20.4764 15.148C21.636 15.8727 23.0468 16.2 24.6464 16.2V14.2ZM21.5501 13.4607C20.7821 12.9631 20.21 12.273 19.8301 11.357L17.9827 12.123C18.5095 13.3936 19.3374 14.4102 20.4627 15.1393L21.5501 13.4607ZM19.8318 11.3609C19.4375 10.3985 19.2264 9.24524 19.2264 7.88H17.2264C17.2264 9.44809 17.4686 10.8682 17.981 12.1191L19.8318 11.3609ZM19.2264 7.88C19.2264 6.89052 19.3607 6.01091 19.6165 5.23197L17.7163 4.60803C17.3854 5.61576 17.2264 6.70948 17.2264 7.88H19.2264ZM19.6179 5.22782C19.8748 4.43351 20.2406 3.77336 20.7057 3.23079L19.1871 1.92921C18.5322 2.69331 18.0446 3.59316 17.715 4.61218L19.6179 5.22782ZM20.698 3.23959C21.1706 2.70106 21.7488 2.28032 22.4457 1.97683L21.6471 0.143165C20.6907 0.559682 19.8689 1.15228 19.1948 1.92041L20.698 3.23959ZM22.4403 1.97914C23.1353 1.68128 23.9576 1.52 24.9264 1.52V-0.48C23.7352 -0.48 22.6375 -0.281279 21.6525 0.140855L22.4403 1.97914ZM24.9264 1.52C25.544 1.52 26.1648 1.60143 26.791 1.76684L27.3018 -0.166839C26.5147 -0.374763 25.7222 -0.48 24.9264 -0.48V1.52ZM26.8124 1.77222C27.4684 1.93015 28.0909 2.14803 28.6815 2.42524L29.5313 0.614762C28.8152 0.278633 28.0645 0.0165167 27.2805 -0.172224L26.8124 1.77222ZM28.1774 1.14991L27.1974 3.60991L29.0554 4.35009L30.0354 1.89009L28.1774 1.14991ZM28.5555 3.07672C27.9884 2.80738 27.4131 2.57291 26.8296 2.37365L26.1833 4.26635C26.693 4.44042 27.1977 4.64595 27.6973 4.88328L28.5555 3.07672ZM26.8368 2.37614C26.2064 2.15553 25.5682 2.04 24.9264 2.04V4.04C25.3246 4.04 25.7397 4.11113 26.1761 4.26386L26.8368 2.37614Z" fill="#172228"/>
</svg>
